<svg width="26" height="26" viewBox="0 0 26 26" fill="none" xmlns="http://www.w3.org/2000/svg">
<path d="M17.0625 22.75H0.8125C0.365625 22.75 0 23.1156 0 23.5625V25.1875C0 25.6344 0.365625 26 0.8125 26H17.0625C17.5094 26 17.875 25.6344 17.875 25.1875V23.5625C17.875 23.1156 17.5094 22.75 17.0625 22.75ZM25.0453 5.44883L20.932 1.33555C20.6172 1.0207 20.0992 1.0207 19.7844 1.33555L19.2105 1.90937C18.8957 2.22422 18.8957 2.74219 19.2105 3.05703L21.125 4.97148V8.125C21.125 9.55195 22.1863 10.7301 23.5625 10.9281V19.0938C23.5625 19.7641 23.0141 20.3125 22.3438 20.3125C21.6734 20.3125 21.125 19.7641 21.125 19.0938V17.4688C21.125 15.0008 19.1242 13 16.6562 13H16.25V3.25C16.25 1.45742 14.7926 0 13 0H4.875C3.08242 0 1.625 1.45742 1.625 3.25V21.125H16.25V15.4375H16.6562C17.7785 15.4375 18.6875 16.3465 18.6875 17.4688V18.8805C18.6875 20.7949 20.0586 22.5367 21.9629 22.7348C24.1465 22.9531 26 21.2367 26 19.0938V7.74922C26 6.88594 25.6547 6.0582 25.0453 5.44883ZM13 9.75H4.875V3.25H13V9.75Z" fill="white"/>
</svg>
